<?xml version="1.0" encoding="iso-8859-1"?>
<!-- Generator: Adobe Illustrator 19.0.0, SVG Export Plug-In . SVG Version: 6.00 Build 0)  -->
<svg version="1.1" id="Layer_1" xmlns="http://www.w3.org/2000/svg" xmlns:xlink="http://www.w3.org/1999/xlink" x="0px" y="0px"
	 viewBox="0 0 511.999 511.999" style="enable-background:new 0 0 511.999 511.999;" xml:space="preserve">
<path style="fill:#00AD68;" d="M378.618,212.737l-21.803-71.66c-2.277-7.483-9.18-12.599-17.002-12.599H20.65
	c-6.979,0-12.637,5.658-12.637,12.637v195.997c0,11.957,9.694,21.652,21.652,21.652h452.67c11.958,0,21.652-9.694,21.652-21.652
	V236.376c0-9.676-7.842-17.518-17.518-17.518h-99.589C383.079,218.858,379.725,216.373,378.618,212.737z"/>
<path style="fill:#333E48;" d="M20.65,128.478c-6.979,0-12.637,5.657-12.637,12.637v113.816h69.349
	c9.668,0,17.507-7.838,17.507-17.507V128.478H20.65z"/>
<path style="opacity:0.2;enable-background:new    ;" d="M503.987,327.971H8.013v9.141c0,11.957,9.694,21.652,21.652,21.652h452.67
	c11.958,0,21.652-9.694,21.652-21.652v-9.141H503.987z"/>
<circle style="fill:#333E48;" cx="155.694" cy="358.763" r="56.927"/>
<circle style="fill:#C3C6C8;" cx="155.694" cy="358.763" r="25.394"/>
<path style="opacity:0.2;enable-background:new    ;" d="M155.689,301.837c-31.439,0-56.926,25.487-56.926,56.925
	c0,6.095,0.968,11.961,2.742,17.467c3.048-1.094,5.602-3.522,6.763-6.857l11.797-33.862c1.153-3.309,4.249-5.53,7.707-5.53h55.825
	c3.457,0,6.555,2.221,7.708,5.53l11.798,33.862c1.162,3.338,3.72,5.762,6.771,6.857c1.774-5.505,2.742-11.371,2.742-17.467
	C212.615,327.324,187.128,301.837,155.689,301.837z"/>
<circle style="fill:#333E48;" cx="383.989" cy="358.763" r="56.927"/>
<circle style="fill:#C3C6C8;" cx="383.989" cy="358.763" r="25.394"/>
<path style="opacity:0.2;enable-background:new    ;" d="M383.985,301.837c-31.439,0-56.926,25.487-56.926,56.925
	c0,6.095,0.968,11.961,2.742,17.467c3.048-1.094,5.603-3.522,6.764-6.857l11.798-33.862c1.153-3.309,4.249-5.53,7.707-5.53h55.826
	c3.457,0,6.555,2.221,7.707,5.53l11.797,33.862c1.162,3.338,3.72,5.762,6.772,6.857c1.773-5.505,2.741-11.371,2.741-17.467
	C440.911,327.324,415.424,301.837,383.985,301.837z"/>
<g>
	<path style="fill:#57C9E8;" d="M316.648,200.569l-12.474-40.998c-1.207-3.968-4.868-6.681-9.017-6.681h-58.986
		c-5.798,0-10.5,4.701-10.5,10.5v38.847c0,5.798,4.701,10.5,10.5,10.5h71.46C313.961,212.737,318.49,206.623,316.648,200.569z"/>
	<path style="fill:#57C9E8;" d="M123.377,152.89h64.624c5.798,0,10.5,4.701,10.5,10.5v38.847c0,5.798-4.701,10.5-10.5,10.5h-64.624
		c-5.8,0-10.5-4.701-10.5-10.5V163.39C112.877,157.592,117.577,152.89,123.377,152.89z"/>
</g>
<g>
	<path style="fill:#C3C6C8;" d="M222.724,371.613c-5.292,0-10.247-3.295-12.113-8.569l-13.664-38.653
		c-1.334-3.777-4.922-6.312-8.927-6.312h-64.662c-4.005,0-7.591,2.535-8.926,6.312l-13.664,38.654
		c-2.366,6.691-9.706,10.196-16.394,7.831c-6.69-2.364-10.195-9.705-7.831-16.394l13.664-38.654
		c4.957-14.022,18.279-23.443,33.151-23.443h64.662c14.873,0,28.195,9.42,33.152,23.443l13.664,38.654
		c2.364,6.69-1.141,14.03-7.831,16.394C225.59,371.377,224.144,371.613,222.724,371.613z"/>
	<path style="fill:#C3C6C8;" d="M451.019,371.613c-5.292,0-10.247-3.295-12.112-8.569l-13.664-38.654
		c-1.336-3.777-4.922-6.312-8.927-6.312h-64.662c-4.006,0-7.592,2.535-8.927,6.312l-13.664,38.654
		c-2.365,6.691-9.705,10.196-16.394,7.831c-6.69-2.364-10.195-9.705-7.831-16.394l13.664-38.654
		c4.957-14.022,18.279-23.443,33.152-23.443h64.662c14.873,0,28.195,9.421,33.152,23.443l13.664,38.654
		c2.364,6.69-1.141,14.03-7.831,16.394C453.886,371.377,452.44,371.613,451.019,371.613z"/>
</g>
<g>
	<path style="fill:#57C9E8;" d="M46.862,152.89h16.165c5.8,0,10.5,4.701,10.5,10.5v38.847c0,5.798-4.7,10.5-10.5,10.5H46.862
		c-5.798,0-10.5-4.701-10.5-10.5V163.39C36.362,157.592,41.064,152.89,46.862,152.89z"/>
	<path style="fill:#57C9E8;" d="M360.41,152.89h-18.634c-5.078,0-8.713,4.906-7.236,9.765l12.735,41.855
		c1.487,4.887,5.994,8.227,11.103,8.227h20.241L360.41,152.89z"/>
</g>
<path style="fill:#FFD13F;" d="M490.567,311.655c-9.81,0-17.763-7.952-17.763-17.763c0-9.809,7.952-17.762,17.763-17.762h13.42
	v35.525H490.567z"/>
<path style="fill:#333E48;" d="M480.402,276.13h23.585v-36.864h-23.585c-4.196,0-7.598,3.403-7.598,7.598v21.667
	C472.804,272.728,476.206,276.13,480.402,276.13z"/>
<circle style="opacity:0.2;enable-background:new    ;" cx="135.757" cy="252.773" r="14.802"/>
<g>
	<path style="opacity:0.2;fill:#FFFFFF;enable-background:new    ;" d="M364.963,167.855l-22.113,22.112l4.424,14.543
		c1.487,4.887,5.994,8.227,11.103,8.227h20.241L364.963,167.855z"/>
	<path style="opacity:0.2;fill:#FFFFFF;enable-background:new    ;" d="M304.175,159.571c-1.207-3.968-4.868-6.681-9.017-6.681
		h-58.986c-5.798,0-10.5,4.701-10.5,10.5v38.847c0,5.798,4.701,10.5,10.5,10.5h19.58l49.528-49.528L304.175,159.571z"/>
	<path style="opacity:0.2;fill:#FFFFFF;enable-background:new    ;" d="M194.774,155.373l-57.363,57.364h50.59
		c5.798,0,10.5-4.701,10.5-10.5v-38.847C198.5,160.175,197.052,157.299,194.774,155.373z"/>
	<path style="opacity:0.2;fill:#FFFFFF;enable-background:new    ;" d="M63.027,152.89H46.862c-5.798,0-10.5,4.701-10.5,10.5v38.847
		c0,0.872,0.119,1.715,0.318,2.525l36.845-36.844v-4.527C73.527,157.592,68.826,152.89,63.027,152.89z"/>
</g>
<path d="M486.469,210.845h-99.589c-0.276,0-0.514-0.177-0.595-0.441l-21.803-71.66c-3.327-10.933-13.24-18.279-24.668-18.279
	h-31.375v-16.141h14.748c4.426,0,8.013-3.587,8.013-8.013s-3.588-8.013-8.013-8.013H37.224c-4.426,0-8.013,3.587-8.013,8.013
	s3.588,8.013,8.013,8.013h14.749v16.14H20.65C9.263,120.465,0,129.727,0,141.115v195.997c0,16.358,13.308,29.665,29.665,29.665
	H69.42c0.137,0.326,0.256,0.656,0.409,0.977c2.402,5.028,6.618,8.82,11.87,10.677c2.246,0.794,4.586,1.197,6.953,1.197
	c1.823,0,3.602-0.251,5.31-0.703c8.556,26.209,33.265,44.778,61.724,44.778c28.457,0,53.168-18.569,61.725-44.779
	c1.708,0.453,3.487,0.703,5.31,0.703c2.371,0,4.711-0.403,6.951-1.196c5.254-1.857,9.47-5.649,11.872-10.677
	c0.154-0.321,0.274-0.651,0.409-0.977h55.76c0.137,0.326,0.256,0.656,0.409,0.977c2.402,5.028,6.618,8.82,11.87,10.677
	c2.246,0.794,4.586,1.197,6.955,1.197c1.823,0,3.602-0.251,5.31-0.703c8.556,26.209,33.266,44.778,61.724,44.778
	c28.456,0,53.168-18.569,61.725-44.779c1.708,0.453,3.487,0.703,5.31,0.703c2.371,0,4.711-0.403,6.951-1.196
	c5.254-1.857,9.47-5.649,11.872-10.677c0.154-0.321,0.274-0.651,0.409-0.977h12.082c16.358,0,29.665-13.307,29.665-29.665V236.376
	C512,222.298,500.547,210.845,486.469,210.845z M367.804,204.724h-9.426c-1.592,0-2.973-1.024-3.436-2.547l-12.557-41.273h12.088
	L367.804,204.724z M67.999,104.324h224.413v16.14H67.999V104.324z M16.027,141.115c0-2.549,2.074-4.623,4.623-4.623h66.205v100.934
	c0,5.234-4.259,9.493-9.493,9.493H16.027V141.115z M155.689,407.675c-23.701,0-43.948-17.095-48.11-40.161
	c0.27-0.587,0.525-1.183,0.743-1.799l13.665-38.655c0.201-0.571,0.765-0.969,1.371-0.969h64.662c0.606,0,1.17,0.398,1.372,0.97
	l13.664,38.654c0.218,0.615,0.471,1.213,0.742,1.797C199.637,390.579,179.389,407.675,155.689,407.675z M227.086,360.846
	c-0.556,1.166-1.533,2.044-2.753,2.475c-0.522,0.185-1.064,0.279-1.608,0.279c-2.044,0-3.875-1.297-4.557-3.227l-13.664-38.653
	c-2.464-6.972-9.088-11.656-16.483-11.656h-64.662c-7.395,0-14.019,4.685-16.482,11.655l-13.664,38.654
	c-0.682,1.931-2.514,3.228-4.557,3.228c-0.543,0-1.084-0.095-1.611-0.281c-1.217-0.43-2.194-1.309-2.75-2.473
	c-0.557-1.165-0.626-2.477-0.196-3.694l13.664-38.654c3.827-10.828,14.113-18.101,25.596-18.101h64.662
	c11.484,0,21.77,7.274,25.597,18.101l13.664,38.654C227.712,358.369,227.642,359.682,227.086,360.846z M383.985,407.675
	c-23.701,0-43.947-17.095-48.11-40.161c0.271-0.587,0.525-1.183,0.743-1.799l13.664-38.655c0.202-0.571,0.766-0.969,1.372-0.969
	h64.662c0.606,0,1.17,0.398,1.372,0.97l13.665,38.654c0.218,0.616,0.471,1.213,0.741,1.798
	C427.932,390.58,407.684,407.675,383.985,407.675z M455.381,360.846c-0.557,1.166-1.533,2.044-2.753,2.475
	c-0.522,0.185-1.064,0.279-1.608,0.279c-2.044,0-3.875-1.297-4.557-3.227l-13.664-38.653c-2.464-6.972-9.088-11.656-16.483-11.656
	h-64.662c-7.395,0-14.019,4.684-16.483,11.655l-13.664,38.654c-0.682,1.931-2.514,3.228-4.557,3.228
	c-0.543,0-1.085-0.095-1.611-0.281c-1.217-0.43-2.194-1.309-2.75-2.473c-0.557-1.165-0.626-2.477-0.196-3.694l13.664-38.654
	c3.827-10.828,14.113-18.101,25.597-18.101h64.662c11.484,0,21.77,7.274,25.597,18.101l13.664,38.654
	C456.007,358.369,455.937,359.682,455.381,360.846z M495.973,337.112c0,7.52-6.118,13.639-13.639,13.639h-12.022l-13.29-37.594
	c-6.086-17.217-22.445-28.785-40.708-28.785h-64.662c-18.262,0-34.621,11.568-40.708,28.785l-13.29,37.594h-55.639l-13.289-37.594
	c-6.086-17.217-22.445-28.785-40.708-28.785h-64.662c-18.262,0-34.62,11.568-40.707,28.785L69.358,350.75H29.665
	c-7.521,0-13.639-6.119-13.639-13.639v-74.167h61.335c14.071,0,25.52-11.448,25.52-25.52V136.49h236.93
	c4.325,0,8.077,2.781,9.336,6.918l0.447,1.468h-7.82c-4.985,0-9.547,2.297-12.515,6.302c-2.968,4.006-3.838,9.038-2.387,13.809
	l12.735,41.854c2.531,8.319,10.073,13.909,18.769,13.909h15.592c3.084,3.803,7.755,6.121,12.91,6.121h99.589
	c5.241,0,9.505,4.263,9.505,9.505L495.973,337.112L495.973,337.112z M81.54,163.39c0-10.209-8.305-18.513-18.513-18.513H46.862
	c-10.208,0-18.513,8.305-18.513,18.513v38.847c0,10.209,8.305,18.513,18.513,18.513h16.165c10.208,0,18.513-8.305,18.513-18.513
	C81.54,202.236,81.54,163.39,81.54,163.39z M65.513,202.237c0,1.371-1.115,2.486-2.486,2.486H46.862
	c-1.371,0-2.486-1.115-2.486-2.486v-38.847c0-1.371,1.115-2.486,2.486-2.486h16.165c1.371,0,2.486,1.115,2.486,2.486
	C65.513,163.391,65.513,202.237,65.513,202.237z M188.001,144.877h-64.624c-10.208,0-18.513,8.305-18.513,18.513v38.847
	c0,10.209,8.305,18.513,18.513,18.513h64.624c10.208,0,18.513-8.305,18.513-18.513V163.39
	C206.514,153.182,198.209,144.877,188.001,144.877z M190.487,202.237c0,1.371-1.115,2.486-2.486,2.486h-64.624
	c-1.371,0-2.486-1.115-2.486-2.486v-38.847c0-1.371,1.115-2.486,2.486-2.486h64.624c1.371,0,2.486,1.115,2.486,2.486V202.237z
	 M264.002,235.607h-28.427c-4.426,0-8.013,3.587-8.013,8.013c0,4.427,3.588,8.013,8.013,8.013h28.427
	c4.426,0,8.013-3.587,8.013-8.013C272.015,239.195,268.427,235.607,264.002,235.607z M311.841,157.24
	c-2.249-7.395-8.954-12.362-16.683-12.362h-58.986c-10.208,0-18.513,8.305-18.513,18.513v38.847
	c0,10.209,8.305,18.513,18.513,18.513h71.46c5.582,0,10.688-2.572,14.011-7.057c3.323-4.483,4.297-10.118,2.672-15.456
	L311.841,157.24z M308.766,204.153c-0.193,0.26-0.546,0.571-1.134,0.571h-71.46c-1.371,0-2.486-1.115-2.486-2.486v-38.847
	c0-1.371,1.115-2.486,2.486-2.486h58.986c0.626,0,1.168,0.402,1.349,1l12.474,41C309.153,203.464,308.96,203.892,308.766,204.153z"
	/>
<g>
</g>
<g>
</g>
<g>
</g>
<g>
</g>
<g>
</g>
<g>
</g>
<g>
</g>
<g>
</g>
<g>
</g>
<g>
</g>
<g>
</g>
<g>
</g>
<g>
</g>
<g>
</g>
<g>
</g>
</svg>
