<?xml version="1.0" encoding="iso-8859-1"?>
<!-- Generator: Adobe Illustrator 19.0.0, SVG Export Plug-In . SVG Version: 6.00 Build 0)  -->
<svg version="1.1" id="Layer_1" xmlns="http://www.w3.org/2000/svg" xmlns:xlink="http://www.w3.org/1999/xlink" x="0px" y="0px"
	 viewBox="0 0 504.123 504.123" style="enable-background:new 0 0 504.123 504.123;" xml:space="preserve">
<circle style="fill:#ED9200;" cx="252.062" cy="252.062" r="252.062"/>
<path style="fill:#EA6F00;" d="M73.83,73.823c98.43-98.43,258.032-98.43,356.462,0c98.43,98.438,98.446,258.032,0,356.478"/>
<polygon points="358.4,216.615 326.892,216.615 326.892,129.969 405.662,129.969 405.662,161.477 358.4,161.477 "/>
<polygon points="295.385,263.877 263.877,263.877 263.877,185.108 350.523,185.108 350.523,216.615 295.385,216.615 "/>
<polygon points="240.246,319.015 208.738,319.015 208.738,232.369 295.385,232.369 295.385,263.877 240.246,263.877 "/>
<polygon points="185.108,382.031 98.462,382.031 98.462,350.523 153.6,350.523 153.6,287.508 240.246,287.508 240.246,319.015 
	185.108,319.015 "/>
<path style="fill:#1D2321;" d="M342.158,303.687c-3.08-3.08-9.255-3.08-12.327,0l-50.2,48.987v-30.562
	c0-6.522-5.293-11.815-11.815-11.815c-6.522,0-11.815,5.293-11.815,11.815v67.797h67.726c6.522,0,11.815-5.293,11.815-11.815
	s-5.293-11.815-11.815-11.815H293.14l49.018-50.223C345.23,312.974,345.23,306.759,342.158,303.687z"/>
<g>
	<circle style="fill:#ED9200;" cx="356.809" cy="289.004" r="7.136"/>
	<circle style="fill:#ED9200;" cx="378.722" cy="267.122" r="7.144"/>
	<circle style="fill:#ED9200;" cx="400.62" cy="245.217" r="7.144"/>
</g>
<g>
</g>
<g>
</g>
<g>
</g>
<g>
</g>
<g>
</g>
<g>
</g>
<g>
</g>
<g>
</g>
<g>
</g>
<g>
</g>
<g>
</g>
<g>
</g>
<g>
</g>
<g>
</g>
<g>
</g>
</svg>
