<?xml version="1.0" encoding="UTF-8"?>
<svg viewBox="0 0 24 24" xmlns="http://www.w3.org/2000/svg">
<title>volvo</title>
<g class="layer">
<title>Layer 1</title>
<g transform="matrix(.54055 0 0 .54055 .037404 .20407)">
<path d="m0.09067 0.28008c0.016 0 0.03022 0.00652 0.04059 0.01689 0.01067 0.01037 0.01689 0.02489 0.01689 0.04089 0 0.0157-0.00622 0.03022-0.01689 0.04059-0.01037 0.01037-0.0246 0.01689-0.04059 0.01689-0.016 0-0.03022-0.00652-0.04089-0.01689-0.01037-0.01037-0.01689-0.02489-0.01689-0.04059 0-0.016 0.00652-0.03052 0.01689-0.04089 0.01067-0.01037 0.02489-0.01688 0.04089-0.01688v-1e-5zm0 8.9e-4a0.05667 0.05667 0 0 0 -0.04 0.01659c-0.01037 0.01037-0.01689 0.02459-0.01689 0.0403 0 0.0157 0.00652 0.02992 0.01689 0.04 0.01007 0.01037 0.02429 0.01659 0.04 0.01659 0.0157 0 0.02993-0.00623 0.04-0.01659 0.01037-0.01007 0.01659-0.0243 0.01659-0.04s-0.00622-0.02993-0.01659-0.0403a0.05666 0.05666 0 0 0 -0.04 -0.01659z" fill="#bcbcb6"/>
<radialGradient id="b" cx="-1039.2" cy="1145.9" r="44.665" gradientTransform="matrix(1 0 0 -1 1045.9 1163.2)" gradientUnits="userSpaceOnUse">
<stop stop-color="#fff" offset="0"/>
<stop stop-color="#fafaf8" offset=".041"/>
<stop stop-color="#f8f8f5" offset=".225"/>
<stop stop-color="#dadad7" offset=".287"/>
<stop stop-color="#a3a4a1" offset=".413"/>
<stop stop-color="#7e7f7d" offset=".52"/>
<stop stop-color="#686866" offset=".6"/>
<stop stop-color="#5f5f5d" offset=".646"/>
<stop stop-color="#565754" offset=".739"/>
<stop stop-color="#3b3a37" offset=".899"/>
<stop offset="1"/>
</radialGradient>
<path transform="matrix(.0041152 0 0 .0041152 0 .24897)" d="m22.032 0.144c4.896 0 9.432 1.655 13.032 4.392l2.376-2.376 4.176 4.176-2.376 2.448c2.664 3.6 4.176 7.992 4.176 12.744 0 11.808-9.576 21.456-21.384 21.456s-21.384-9.648-21.384-21.456c0-11.809 9.576-21.384 21.384-21.384zm0 5.04c-9 0-16.344 7.344-16.344 16.344 0 9.072 7.344 16.344 16.344 16.344s16.344-7.272 16.344-16.344c0-9-7.344-16.344-16.344-16.344z" fill="url(#b)"/>
<linearGradient id="c" x1=".24406" x2=".72968" y1=".41165" y2=".57886">
<stop stop-color="#dcdbd3" offset="0"/>
<stop stop-color="#fff" offset="1"/>
</linearGradient>
<path d="m22.032 5.112c4.536 0 8.64 1.8 11.664 4.824a16.422 16.422 0 0 1 4.824 11.664c0 4.535-1.872 8.64-4.824 11.664-3.024 2.951-7.128 4.823-11.664 4.823a16.555 16.555 0 0 1 -11.664 -4.823c-2.952-3.024-4.824-7.129-4.824-11.664 0-4.608 1.872-8.713 4.824-11.664 2.952-3.024 7.128-4.824 11.664-4.824zm0 0.216c-4.464 0-8.568 1.8-11.52 4.752s-4.752 6.984-4.752 11.52c0 4.464 1.8 8.567 4.752 11.52 2.951 2.88 7.056 4.752 11.52 4.752s8.568-1.872 11.521-4.752a16.28 16.28 0 0 0 4.752 -11.52c0-4.536-1.801-8.568-4.752-11.521a16.283 16.283 0 0 0 -11.521 -4.751z" fill="url(#c)"/>
<radialGradient id="d" cx="-1011.2" cy="1127.9" r="49.019" gradientTransform="matrix(1 0 0 -1 1045.9 1163.2)" gradientUnits="userSpaceOnUse">
<stop stop-color="#bbbcb7" offset="0"/>
<stop stop-color="#808079" offset="1"/>
</radialGradient>
<path d="m22.032 0c4.896 0 9.504 1.656 13.104 4.464l-0.072 0.072a21.524 21.524 0 0 0 -13.032 -4.392c-11.808 0-21.384 9.575-21.384 21.384 0 11.808 9.576 21.456 21.384 21.456s21.384-9.648 21.384-21.456c0-4.752-1.512-9.145-4.176-12.744l0.072-0.072c2.664 3.601 4.248 7.992 4.248 12.816 0 5.976-2.448 11.376-6.336 15.264-3.889 3.889-9.216 6.265-15.192 6.265a21.44 21.44 0 0 1 -15.192 -6.265c-3.888-3.96-6.336-9.288-6.336-15.264 0-5.904 2.448-11.304 6.336-15.192s9.216-6.336 15.192-6.336z" fill="url(#d)"/>
<radialGradient id="e" cx="-1016.2" cy="1133.9" r="34.422" gradientTransform="matrix(1 0 0 -1 1045.9 1163.2)" gradientUnits="userSpaceOnUse">
<stop stop-color="#fff" offset="0"/>
<stop stop-color="#f1f1f2" offset=".157"/>
<stop stop-color="#e4e4e5" offset=".298"/>
<stop stop-color="#cecfce" offset=".335"/>
<stop stop-color="#aeafac" offset=".4"/>
<stop stop-color="#969694" offset=".464"/>
<stop stop-color="#858683" offset=".526"/>
<stop stop-color="#7c7c79" offset=".586"/>
<stop stop-color="#787976" offset=".64"/>
<stop stop-color="#5e5e5b" offset=".738"/>
<stop stop-color="#43423f" offset=".846"/>
<stop stop-color="#1f1f1e" offset=".937"/>
<stop offset="1"/>
</radialGradient>
<path d="m22.032 5.256c9 0 16.344 7.272 16.344 16.345 0 9-7.344 16.344-16.344 16.344s-16.344-7.345-16.344-16.345c0-9.072 7.344-16.344 16.344-16.344zm0 2.304c-7.704 0-13.968 6.264-13.968 14.04 0 7.703 6.264 13.968 13.968 13.968s13.968-6.265 13.968-13.968c0-7.776-6.264-14.04-13.968-14.04z" fill="url(#e)"/>
<linearGradient id="a" x1=".49722" x2=".49722" y1="1.0486" y2=".46404">
<stop stop-color="#fff" offset="0"/>
<stop stop-color="#f8f8f5" offset=".17"/>
<stop stop-color="#b1b1ac" offset=".427"/>
<stop stop-color="#adaea8" offset=".435"/>
<stop stop-color="#898984" offset=".534"/>
<stop stop-color="#6c6c67" offset=".633"/>
<stop stop-color="#53534e" offset=".731"/>
<stop stop-color="#3e3e3a" offset=".825"/>
<stop stop-color="#252523" offset=".916"/>
<stop stop-color="#1b1a19" offset="1"/>
</linearGradient>
<path d="m2.494 26.717c0 0.021 5e-3 0.039 0.016 0.057 9e-3 0.017 0.024 0.024 0.046 0.024 0.016 0 0.03-4e-3 0.047-0.012a0.237 0.237 0 0 0 0.05 -0.036v-0.159c-0.06 0.01-0.101 0.024-0.124 0.045a0.108 0.108 0 0 0 -0.035 0.081z" fill="url(#a)" opacity=".67"/>
<linearGradient id="f" x1=".49558" x2=".49558" y1="1.0595" y2=".48301">
<stop stop-color="#fff" offset="0"/>
<stop stop-color="#f8f8f5" offset=".17"/>
<stop stop-color="#b1b1ac" offset=".427"/>
<stop stop-color="#adaea8" offset=".435"/>
<stop stop-color="#898984" offset=".534"/>
<stop stop-color="#6c6c67" offset=".633"/>
<stop stop-color="#53534e" offset=".731"/>
<stop stop-color="#3e3e3a" offset=".825"/>
<stop stop-color="#252523" offset=".916"/>
<stop stop-color="#1b1a19" offset="1"/>
</linearGradient>
<path d="m5.542 26.262h0.101v0.085h-0.101v-0.085z" fill="url(#f)" opacity=".67"/>
<linearGradient id="g" x1=".49558" x2=".49558" y1="1.0581" y2=".4719">
<stop stop-color="#fff" offset="0"/>
<stop stop-color="#f8f8f5" offset=".17"/>
<stop stop-color="#b1b1ac" offset=".427"/>
<stop stop-color="#adaea8" offset=".435"/>
<stop stop-color="#898984" offset=".534"/>
<stop stop-color="#6c6c67" offset=".633"/>
<stop stop-color="#53534e" offset=".731"/>
<stop stop-color="#3e3e3a" offset=".825"/>
<stop stop-color="#252523" offset=".916"/>
<stop stop-color="#1b1a19" offset="1"/>
</linearGradient>
<path d="m5.542 26.364h0.101v0.087h-0.101v-0.087z" fill="url(#g)" opacity=".67"/>
<path d="m3.507 26.717c0 0.021 6e-3 0.039 0.016 0.057 9e-3 0.017 0.024 0.024 0.046 0.024 0.016 0 0.031-4e-3 0.047-0.012s0.032-0.02 0.05-0.036v-0.159c-0.06 0.01-0.101 0.024-0.124 0.045a0.108 0.108 0 0 0 -0.035 0.081z" fill="url(#a)" opacity=".67"/>
<linearGradient id="h" x1=".50019" x2=".50019" y1="1.0615" y2=".47371">
<stop stop-color="#fff" offset="0"/>
<stop stop-color="#f8f8f5" offset=".17"/>
<stop stop-color="#b1b1ac" offset=".427"/>
<stop stop-color="#adaea8" offset=".435"/>
<stop stop-color="#898984" offset=".534"/>
<stop stop-color="#6c6c67" offset=".633"/>
<stop stop-color="#53534e" offset=".731"/>
<stop stop-color="#3e3e3a" offset=".825"/>
<stop stop-color="#252523" offset=".916"/>
<stop stop-color="#1b1a19" offset="1"/>
</linearGradient>
<path d="m5.98 26.411h0.276v0.131h-0.276v-0.131z" fill="url(#h)" opacity=".67"/>
<linearGradient id="i" x1=".49995" x2=".49995" y1="1.048" y2=".46059">
<stop stop-color="#fff" offset="0"/>
<stop stop-color="#f8f8f5" offset=".17"/>
<stop stop-color="#b1b1ac" offset=".427"/>
<stop stop-color="#adaea8" offset=".435"/>
<stop stop-color="#898984" offset=".534"/>
<stop stop-color="#6c6c67" offset=".633"/>
<stop stop-color="#53534e" offset=".731"/>
<stop stop-color="#3e3e3a" offset=".825"/>
<stop stop-color="#252523" offset=".916"/>
<stop stop-color="#1b1a19" offset="1"/>
</linearGradient>
<path d="m8.769 25.958h-7.656c0.189 0.899 0.451 1.771 0.749 2.625h8.09a13.953 13.953 0 0 1 -1.183 -2.625zm-3.264 0.167l0.059 0.037-0.021 0.024v0.061h0.096l0.021-0.034 0.04 0.047-0.021 0.024v0.064h0.011l0.029-0.037 0.042 0.054h-0.084l2e-3 0.115-0.037 0.022v-0.034h-0.1v0.099h0.076l0.026-0.041 0.04 0.058h-0.142v0.091h0.124l0.029-0.047 0.045 0.062h-0.198c0 0.038 1e-3 0.079 5e-3 0.122l-0.042 0.02c2e-3 -0.052 4e-3 -0.099 4e-3 -0.142h-0.106a0.072 0.072 0 0 0 -0.04 0.01l-0.024-0.027h0.17v-0.091h-0.077c-0.015 0-0.024 3e-3 -0.032 0.01l-0.021-0.026h0.13v-0.099h-0.077c-0.015 0-0.024 3e-3 -0.032 0.011l-0.021-0.028h0.13v-0.087h-0.114c-0.015 0-0.024 3e-3 -0.031 0.01l-0.021-0.027h0.167v-0.084h-0.073c-0.015 0-0.025 4e-3 -0.032 0.011l-0.021-0.027h0.124a1.45 1.45 0 0 0 -3e-3 -0.121zm-3.15 0.693h-0.206v-0.021h0.061c0.01 0 0.016-2e-3 0.02-7e-3s5e-3 -0.011 5e-3 -0.02v-0.482a0.034 0.034 0 0 0 -5e-3 -0.02 0.027 0.027 0 0 0 -0.02 -8e-3h-0.06v-0.02h0.03a0.147 0.147 0 0 0 0.087 -0.028h5e-3v0.557c0 9e-3 2e-3 0.016 6e-3 0.02 5e-3 4e-3 0.01 7e-3 0.018 7e-3h0.062v0.021h-3e-3v1e-3zm0.376-0.018c-9e-3 0.013-0.021 0.02-0.034 0.02a0.041 0.041 0 0 1 -0.029 -0.01 0.077 0.077 0 0 1 -0.016 -0.034 0.317 0.317 0 0 1 -0.049 0.036 0.118 0.118 0 0 1 -0.055 0.012 0.094 0.094 0 0 1 -0.073 -0.029 0.087 0.087 0 0 1 -0.026 -0.064c0-0.041 0.014-0.074 0.041-0.101 0.027-0.025 0.081-0.044 0.162-0.056v-0.041a0.119 0.119 0 0 0 -0.012 -0.056c-9e-3 -0.016-0.026-0.022-0.055-0.022s-0.051 6e-3 -0.062 0.02c-0.012 0.013-0.018 0.024-0.013 0.038a0.042 0.042 0 0 1 0 0.027 0.023 0.023 0 0 1 -0.021 0.014 0.021 0.021 0 0 1 -0.017 -8e-3 0.043 0.043 0 0 1 -8e-3 -0.024c0-0.021 0.012-0.04 0.034-0.059a0.133 0.133 0 0 1 0.084 -0.026c0.035 0 0.062 8e-3 0.079 0.024 0.019 0.018 0.026 0.041 0.026 0.072v0.223c0 0.019 1e-3 0.029 4e-3 0.032s7e-3 5e-3 0.015 5e-3c9e-3 0 0.016-5e-3 0.019-0.015s5e-3 -0.024 5e-3 -0.042h0.013c1e-3 0.03-3e-3 0.052-0.012 0.064zm0.343 0.018h-0.111v-0.021h0.014c9e-3 0 0.015-2e-3 0.019-7e-3s4e-3 -0.01 4e-3 -0.019v-0.227a0.12 0.12 0 0 0 -0.013 -0.062 0.043 0.043 0 0 0 -0.039 -0.022 0.078 0.078 0 0 0 -0.049 0.021 0.184 0.184 0 0 0 -0.046 0.058v0.233c0 9e-3 2e-3 0.016 7e-3 0.02 4e-3 4e-3 0.01 7e-3 0.017 7e-3h0.013v0.021h-0.111v-0.021h0.013c0.01 0 0.016-2e-3 0.02-7e-3s5e-3 -0.011 5e-3 -0.02v-0.291c0-6e-3 -1e-3 -0.013-3e-3 -0.016s-6e-3 -5e-3 -0.011-5e-3h-0.024v-0.02h0.019c0.01 0 0.019-1e-3 0.026-3e-3s0.016-7e-3 0.023-0.015h5e-3v0.078a0.256 0.256 0 0 1 0.047 -0.05 0.08 0.08 0 0 1 0.05 -0.017c0.03 0 0.052 0.01 0.066 0.029a0.167 0.167 0 0 1 0.021 0.092v0.216c0 9e-3 2e-3 0.016 7e-3 0.02s0.011 7e-3 0.018 7e-3h0.013v0.021zm0.281-0.026c-0.016 0.021-0.035 0.03-0.061 0.03s-0.046-0.01-0.059-0.03-0.021-0.052-0.021-0.095v-0.236h-0.076v-0.02h0.021a0.063 0.063 0 0 0 0.052 -0.025c0.014-0.017 0.021-0.043 0.025-0.079l2e-3 -0.026h0.016v0.131h0.105v0.02h-0.105v0.25c0 0.032 5e-3 0.054 0.014 0.064 9e-3 0.012 0.021 0.017 0.04 0.017a0.05 0.05 0 0 0 0.042 -0.021 0.146 0.146 0 0 0 0.021 -0.062l0.014 7e-3a0.172 0.172 0 0 1 -0.03 0.075zm0.389 8e-3c-9e-3 0.013-0.02 0.02-0.034 0.02-0.012 0-0.021-3e-3 -0.028-0.01-8e-3 -7e-3 -0.013-0.019-0.017-0.034a0.317 0.317 0 0 1 -0.049 0.036 0.113 0.113 0 0 1 -0.054 0.012 0.095 0.095 0 0 1 -0.1 -0.093 0.14 0.14 0 0 1 0.041 -0.101c0.027-0.025 0.081-0.044 0.162-0.056v-0.041a0.119 0.119 0 0 0 -0.012 -0.056c-8e-3 -0.016-0.026-0.022-0.054-0.022-0.03 0-0.052 6e-3 -0.063 0.02-0.012 0.013-0.017 0.024-0.013 0.038 3e-3 0.01 3e-3 0.019 0 0.027s-0.011 0.014-0.021 0.014a0.021 0.021 0 0 1 -0.017 -8e-3 0.043 0.043 0 0 1 -7e-3 -0.024c0-0.021 0.011-0.04 0.034-0.059a0.13 0.13 0 0 1 0.084 -0.026c0.034 0 0.062 8e-3 0.079 0.024 0.018 0.018 0.025 0.041 0.025 0.072v0.223c0 0.019 1e-3 0.029 4e-3 0.032s7e-3 5e-3 0.016 5e-3 0.015-5e-3 0.018-0.015 5e-3 -0.024 5e-3 -0.042h0.013a0.115 0.115 0 0 1 -0.012 0.064zm0.328-0.29c-4e-3 8e-3 -0.011 0.011-0.02 0.011-0.01 0-0.017-3e-3 -0.021-0.011a0.036 0.036 0 0 1 -4e-3 -0.026l-2e-3 -0.018c-1e-3 -3e-3 -6e-3 -6e-3 -0.015-6e-3 -0.015 0-0.031 0.011-0.052 0.034a0.309 0.309 0 0 0 -0.054 0.095v0.183c0 9e-3 2e-3 0.016 6e-3 0.02s0.01 7e-3 0.018 7e-3h0.058v0.021h-0.194v-0.021h0.054c9e-3 0 0.015-2e-3 0.019-7e-3s5e-3 -0.011 5e-3 -0.02v-0.28a0.048 0.048 0 0 0 -5e-3 -0.022c-4e-3 -5e-3 -0.01-8e-3 -0.019-8e-3h-0.054v-0.02h0.021a0.199 0.199 0 0 0 0.084 -0.018h8e-3v0.122a0.333 0.333 0 0 1 0.057 -0.083 0.087 0.087 0 0 1 0.062 -0.028c0.018 0 0.031 5e-3 0.041 0.015s0.015 0.02 0.015 0.034c-1e-3 0.012-3e-3 0.021-8e-3 0.026zm0.745 0.18v0.135c0 0.047-0.02 0.08-0.058 0.098-1e-3 -0.033-0.029-0.058-0.082-0.073v-0.014l0.076 8e-3c0.017 1e-3 0.023-0.013 0.023-0.042v-0.112h-0.212a0.125 0.125 0 0 0 -0.053 0.01l-0.021-0.026h0.287l-2e-3 -0.098 0.034 0.02 0.07-0.077h-0.217l-0.023 0.01-0.021-0.027h0.261l0.029-0.034 0.047 0.067c-0.024-4e-3 -0.069 0.019-0.137 0.071l0.026 0.017-0.026 0.021v0.029h0.177l0.037-0.047 0.053 0.064h-0.268zm0.269-0.202c-0.025 0-0.046 0.014-0.058 0.041a0.414 0.414 0 0 1 -0.211 -0.256h-0.015c0 0.104 1e-3 0.168 2e-3 0.188l-0.045 0.015c2e-3 -0.05 3e-3 -0.111 3e-3 -0.187a0.584 0.584 0 0 1 -0.277 0.276l-2e-3 -0.015a0.648 0.648 0 0 0 0.242 -0.278h-0.163a0.125 0.125 0 0 0 -0.053 0.01l-0.021-0.027h0.274l-3e-3 -0.121 0.068 0.037-0.025 0.023v0.061h0.194l0.037-0.047 0.047 0.064h-0.25a0.324 0.324 0 0 0 0.256 0.202v0.014zm0.681 0.364c-0.035 0.014-0.052 0.029-0.048 0.051a2.29 2.29 0 0 1 -0.166 0 0.415 0.415 0 0 1 -0.159 -0.034 0.311 0.311 0 0 1 -0.109 -0.078 0.402 0.402 0 0 1 -0.124 0.131l-8e-3 -0.01a0.458 0.458 0 0 0 0.113 -0.152 0.65 0.65 0 0 1 -0.063 -0.172l0.011-6e-3a0.785 0.785 0 0 0 0.063 0.142c0.018-0.059 0.03-0.136 0.037-0.229h-0.077l-0.021 0.037-0.036-0.047 0.031-0.018a3.97 3.97 0 0 0 0.09 -0.198h-0.086l-0.03 0.01-0.021-0.027h0.141l0.023-0.037 0.037 0.055-0.029 0.017c-0.029 0.061-0.062 0.125-0.095 0.192h0.071l0.021-0.03 0.04 0.047-0.023 0.023a1.169 1.169 0 0 1 -0.047 0.235 0.209 0.209 0 0 0 0.094 0.064 0.49 0.49 0 0 0 0.141 0.028c0.053 5e-3 0.13 0 0.232-8e-3l-3e-3 0.014zm0.65-7e-3c-0.031 7e-3 -0.05 0.024-0.055 0.055a0.694 0.694 0 0 1 -0.131 -0.067 0.394 0.394 0 0 1 -0.1 -0.103 0.491 0.491 0 0 1 -0.067 -0.17h-0.084v0.27l0.142-0.078 5e-3 0.01a0.562 0.562 0 0 0 -0.163 0.143l-0.031-0.057a0.083 0.083 0 0 0 0.013 -0.041v-0.487c0-0.036-1e-3 -0.067-3e-3 -0.094l0.037 0.033h0.134a0.264 0.264 0 0 0 -0.045 -0.117l5e-3 -0.011c0.044 0.025 0.069 0.047 0.075 0.067s0 0.041-0.018 0.061h0.119l0.021-0.033 0.042 0.047-0.024 0.02v0.192l2e-3 0.088-0.037 0.017v-0.03h-0.174a0.516 0.516 0 0 0 0.071 0.147 0.584 0.584 0 0 0 0.164 -0.135l0.039 0.067h-0.031c-0.053 0.023-0.105 0.052-0.161 0.08a0.299 0.299 0 0 0 0.123 0.087 0.387 0.387 0 0 0 0.133 0.024l-1e-3 0.015z" fill="url(#i)" opacity=".67"/>
<linearGradient id="j" x1=".50019" x2=".50019" y1="1.0513" y2=".46657">
<stop stop-color="#fff" offset="0"/>
<stop stop-color="#f8f8f5" offset=".17"/>
<stop stop-color="#b1b1ac" offset=".427"/>
<stop stop-color="#adaea8" offset=".435"/>
<stop stop-color="#898984" offset=".534"/>
<stop stop-color="#6c6c67" offset=".633"/>
<stop stop-color="#53534e" offset=".731"/>
<stop stop-color="#3e3e3a" offset=".825"/>
<stop stop-color="#252523" offset=".916"/>
<stop stop-color="#1b1a19" offset="1"/>
</linearGradient>
<path d="m5.98 26.276h0.276v0.118h-0.276v-0.118z" fill="url(#j)" opacity=".67"/>
<linearGradient id="k" x1=".50029" x2=".50029" y1="1.0476" y2=".46021">
<stop stop-color="#fff" offset="0"/>
<stop stop-color="#f8f8f5" offset=".17"/>
<stop stop-color="#b1b1ac" offset=".427"/>
<stop stop-color="#adaea8" offset=".435"/>
<stop stop-color="#898984" offset=".534"/>
<stop stop-color="#6c6c67" offset=".633"/>
<stop stop-color="#53534e" offset=".731"/>
<stop stop-color="#3e3e3a" offset=".825"/>
<stop stop-color="#252523" offset=".916"/>
<stop stop-color="#1b1a19" offset="1"/>
</linearGradient>
<path d="m35.306 25.958h7.655a20.88 20.88 0 0 1 -0.749 2.625h-8.09c0.48-0.827 0.88-1.703 1.184-2.625z" fill="url(#k)" opacity=".86"/>
<path d="m43.344 16.128c0.504 1.729 0.72 3.528 0.72 5.4 0 1.944-0.288 3.815-0.72 5.616h-42.552v-0.072h42.48c0.504-1.8 0.72-3.672 0.72-5.616 0-1.872-0.216-3.672-0.648-5.328z"/>
<radialGradient id="l" cx="-1043.9" cy="1145.9" r="27.789" gradientTransform="matrix(1 0 0 -1 1045.9 1163.2)" gradientUnits="userSpaceOnUse">
<stop stop-color="#1e71b8" offset="0"/>
<stop stop-color="#1c69ab" offset=".082"/>
<stop stop-color="#1b64a4" offset=".166"/>
<stop stop-color="#1a63a1" offset=".242"/>
<stop stop-color="#185d98" offset=".392"/>
<stop stop-color="#0f4d80" offset=".685"/>
<stop stop-color="#004472" offset=".837"/>
<stop stop-color="#014472" offset=".933"/>
<stop stop-color="#064271" offset=".968"/>
<stop stop-color="#0d3f6f" offset=".993"/>
<stop stop-color="#0f3d6e" offset="1"/>
</radialGradient>
<path d="m0.72 16.056h42.624c0.432 1.728 0.647 3.527 0.647 5.399 0 1.944-0.216 3.816-0.72 5.616h-42.479a20.735 20.735 0 0 1 -0.792 -5.615c0-1.872 0.288-3.672 0.72-5.4z" fill="url(#l)"/>
<linearGradient id="m" x1=".96112" x2="-.04138" y1=".98428" y2="-.01158">
<stop stop-color="#121209" offset=".006"/>
<stop stop-color="#454441" offset=".646"/>
<stop stop-color="#484845" offset=".65"/>
<stop stop-color="#535350" offset=".655"/>
<stop stop-color="#646561" offset=".66"/>
<stop stop-color="#7b7b77" offset=".664"/>
<stop stop-color="#969792" offset=".669"/>
<stop stop-color="#bbbbb7" offset=".674"/>
<stop stop-color="#e8e7e2" offset=".678"/>
<stop stop-color="#fbfaf5" offset=".68"/>
<stop stop-color="#f8f7f2" offset=".682"/>
<stop stop-color="#f0f0ea" offset=".684"/>
<stop stop-color="#e4e3dd" offset=".685"/>
<stop stop-color="#d2d2cc" offset=".686"/>
<stop stop-color="#bbbcb5" offset=".687"/>
<stop stop-color="#a0a19a" offset=".689"/>
<stop stop-color="#83847d" offset=".689"/>
<stop stop-color="#6d6d67" offset=".69"/>
<stop stop-color="#5f5f5b" offset=".706"/>
<stop stop-color="#4d4d4b" offset=".732"/>
<stop stop-color="#3b3a3a" offset=".762"/>
<stop stop-color="#242324" offset=".8"/>
<stop stop-color="#101010" offset=".853"/>
<stop offset="1"/>
</linearGradient>
<path d="m38.304 0.719l4.752 4.753-3.528 3.528 0.216 0.288-2.52 2.015-0.792 0.289 5.184-5.256-4.176-4.176-5.184 5.184 0.216-0.72 5.832-5.905z" fill="url(#m)"/>
<radialGradient id="n" cx="-1004.2" cy="1161.9" r="11.613" gradientTransform="matrix(1 0 0 -1 1045.9 1163.2)" gradientUnits="userSpaceOnUse">
<stop stop-color="#575652" offset="0"/>
<stop stop-color="#52524e" offset="1"/>
</radialGradient>
<path d="m33.552 0.216c4.176 2.232 7.56 5.688 9.863 9.792v-9.792h-9.863z" fill="url(#n)"/>
<path d="m33.552 0.216c4.176 2.232 7.56 5.688 9.863 9.792" fill="none" stroke="#a7a79c" stroke-linecap="round" stroke-width=".34"/>
<path d="m33.552 0.216a24.642 24.642 0 0 1 9.792 9.792" fill="none" stroke="#c2c2b9" stroke-linecap="round" stroke-width=".236"/>
<path d="m33.48 0.216c4.176 2.232 7.56 5.688 9.864 9.864" fill="none" stroke="#e0e0d8" stroke-linecap="round" stroke-width=".132"/>
<path d="m33.48 0.216c4.104 2.305 7.56 5.688 9.792 9.864" fill="none" stroke="#fff" stroke-linecap="round" stroke-width=".028"/>
<linearGradient id="o" x1="1e-4" x2=".99991" y1=".50026" y2=".50026">
<stop stop-color="#5d5e60" offset="0"/>
<stop stop-color="#5b5b5d" offset=".019"/>
<stop stop-color="#484846" offset=".205"/>
<stop stop-color="#343431" offset=".41"/>
<stop stop-color="#222120" offset=".649"/>
<stop stop-color="#1b1a19" offset="1"/>
</linearGradient>
<path d="m43.416 0c0.072 0 0.145 0.072 0.145 0.216h-10.154c1e-3 -0.144 0.073-0.216 0.145-0.216h9.864z" fill="url(#o)"/>
<linearGradient id="p" x1=".50024" x2=".50024" y1="1" y2="1e-4">
<stop stop-color="#5d5e60" offset="0"/>
<stop stop-color="#464543" offset=".386"/>
<stop stop-color="#2a2927" offset=".742"/>
<stop stop-color="#1b1a19" offset="1"/>
</linearGradient>
<path d="m43.56 10.008c0 0.145-0.072 0.217-0.145 0.217l-0.071-0.145v-10.08h0.071c0.072 0 0.145 0.072 0.145 0.216v9.792z" fill="url(#p)"/>
<path d="m37.44 24.222c-1.922 0-3.485-1.177-3.485-2.622 0-1.446 1.563-2.622 3.485-2.622 1.962 0 3.558 1.176 3.558 2.622s-1.596 2.622-3.558 2.622zm0-4.464c-0.691 0-1.194 0.775-1.194 1.843 0 1.009 0.514 1.77 1.194 1.77 0.646 0 1.194-0.811 1.194-1.77 1e-3 -1.017-0.536-1.843-1.194-1.843zm-21.888 4.464c-1.923 0-3.486-1.177-3.486-2.622 0-1.383 1.596-2.551 3.486-2.551 1.962 0 3.558 1.145 3.558 2.551 0 1.446-1.596 2.622-3.558 2.622zm0-4.392c-0.682 0-1.194 0.761-1.194 1.771 0 1.009 0.514 1.77 1.194 1.77 0.646 0 1.193-0.811 1.193-1.77s-0.545-1.771-1.193-1.771zm12.816 4.248l-2.258-4.191-1.125 0.017-0.03-0.678 4.926-0.03 0.03 0.678-1.254 0.03 1.754 2.907 1.459-2.951-0.837 0.043-0.03-0.678 3.414-0.03 0.03 0.678-1.182 0.03-2.214 4.176h-2.683v-1e-3zm-9 0l-0.03-0.822 1.183-0.029-0.03-3.354-1.122 0.03-0.03-0.678 4.566-0.03 0.03 0.678-1.183 0.03 0.03 3.354 1.194-0.029c0.388 0 1.41-0.254 1.481-1.412l0.75-0.028 0.03 2.292h-6.869v-2e-3zm-12.888 0l-2.258-4.191-1.125 0.017-0.03-0.678 4.926-0.03 0.03 0.678-1.254 0.03 1.754 2.907 1.532-2.951-0.91 0.044-0.03-0.678 3.414-0.03 0.03 0.678-1.183 0.03-2.214 4.176-2.682-2e-3z" fill="#fff"/>
<path d="m37.44 19.008c1.944 0 3.528 1.152 3.528 2.593 0 1.439-1.584 2.592-3.528 2.592-1.872 0-3.456-1.152-3.456-2.592 0-1.441 1.584-2.593 3.456-2.593m0 4.392c0.647 0 1.224-0.792 1.224-1.8 0-1.08-0.576-1.872-1.224-1.872-0.72 0-1.225 0.792-1.225 1.872 1e-3 1.008 0.505 1.8 1.225 1.8m-21.888-4.32c1.943 0 3.527 1.152 3.527 2.521 0 1.439-1.584 2.592-3.527 2.592-1.872 0-3.456-1.152-3.456-2.592 0-1.369 1.584-2.521 3.456-2.521m0 4.32c0.647 0 1.224-0.792 1.224-1.8 0-1.009-0.576-1.801-1.224-1.801-0.721 0-1.225 0.792-1.225 1.801 1e-3 1.008 0.505 1.8 1.225 1.8m18.864-4.176v0.647h-1.151l-2.232 4.176h-2.664l-2.231-4.176h-1.152v-0.647h4.896v0.647h-1.224l1.729 2.952 1.512-2.952h-0.864v-0.647h3.381m-10.512 0v0.647h-1.152v3.384h1.225c0.432 0 1.439-0.288 1.512-1.439h0.72v2.231h-6.841v-0.792h1.152v-3.384h-1.152v-0.647h4.536m-11.376 0v0.647h-1.152l-2.231 4.176h-2.665l-2.232-4.176h-1.152v-0.647h4.896v0.647h-1.224l1.728 2.952 1.584-2.952h-0.936v-0.647h3.384m24.912-0.276c-1.938 0-3.517 1.189-3.517 2.652 0 1.462 1.577 2.651 3.517 2.651 1.979 0 3.588-1.188 3.588-2.651 0-1.464-1.61-2.652-3.588-2.652zm0 4.392c-0.664 0-1.164-0.748-1.164-1.739 0-1.051 0.489-1.812 1.164-1.812 0.642 0 1.164 0.813 1.164 1.812 0 0.942-0.533 1.739-1.164 1.739zm-21.888-4.32c-1.906 0-3.517 1.182-3.517 2.58 0 1.462 1.577 2.651 3.517 2.651 1.979 0 3.588-1.188 3.588-2.651 0-1.423-1.609-2.58-3.588-2.58zm0 4.32c-0.664 0-1.164-0.748-1.164-1.739 0-0.992 0.5-1.74 1.164-1.74 0.631 0 1.163 0.797 1.163 1.74 1e-3 0.942-0.532 1.739-1.163 1.739zm18.924-4.176h-3.505v0.769h0.826l-1.416 2.767-1.619-2.768h1.18v-0.769h-5.017v0.769h1.175l2.215 4.144 0.017 0.032h2.736l0.017-0.032 2.216-4.144h1.176v-0.768h-1e-3zm-10.512 0h-4.656v0.769h1.152v3.264h-1.152v0.913h6.961v-2.353h-0.837l-4e-3 0.057c-0.071 1.135-1.072 1.384-1.452 1.384h-1.164v-3.264h1.152v-0.77zm-11.376 0h-3.504v0.769h0.896l-1.486 2.77-1.621-2.77h1.181v-0.769h-5.018v0.769h1.176l2.216 4.144 0.017 0.032h2.735l0.017-0.032 2.215-4.144h1.176v-0.769z" fill="#39393c"/>
<linearGradient id="q" x1=".25857" x2=".54799" y1="-.43045" y2=".66634">
<stop stop-color="#fff" offset="0"/>
<stop stop-color="#d5ddf0" offset=".109"/>
<stop stop-color="#94add9" offset=".338"/>
<stop stop-color="#668fc9" offset=".542"/>
<stop stop-color="#447dbf" offset=".714"/>
<stop stop-color="#2a74ba" offset=".848"/>
<stop stop-color="#1e71b8" offset=".927"/>
<stop stop-color="#4079bc" offset=".947"/>
<stop stop-color="#5580c0" offset=".967"/>
<stop stop-color="#6085c2" offset=".985"/>
<stop stop-color="#6486c3" offset="1"/>
</linearGradient>
<path d="m0.798 16.139c-0.432 1.728-0.72 3.527-0.72 5.399 0 0.155 0.053 1.072 0.058 1.227l0.125 1.391c-2e-3 -0.112-0.058-2.379-0.058-2.492 0-1.872 0.312-3.607 0.744-5.336l15.083-0.062 6.51-0.125-21.742-2e-3z" fill="url(#q)"/>
</g>
</g>
</svg>
